# xmcd
#
# Track frame offsets:
#	150
#	11587
#	22539
#	31977
#	43262
#	56465
#	66865
#	78891
#	88251
#	100072
#	111778
#	121733
#	131518
#	142621
#	154876
#	166886
#	176264
#	187902
#	201268
#	212051
#	221610
#	233462
#	245254
#	254934
#	265707
#
# Disc length: 3706 seconds
#
# Revision: 0
# Processed by: cddbd v1.5.2PL0 Copyright (c) Steve Scherf et al.
# Submitted via: audiograbber 1.83.01
#
DISCID=450e7819
DTITLE=Various Artist - Bombshell Oldies Volume 1
DYEAR=1900
DGENRE=
TTITLE0=Tranells - Come On And Tell Me
TTITLE1=Billy Davis And Legends - Goodbye Jesse
TTITLE2=Tabbys - My Darling
TTITLE3=Blenders - Angel
TTITLE4=Jerico Brown - Wisdom Of A Fool
TTITLE5=Bill Harton - Like To See You In The Mood
TTITLE6=Tommy Duncan - We Belong Together
TTITLE7=Lenny Coco and The Chimes - Two Times Two
TTITLE8=G R Campbell - Turn Around Look At Me
TTITLE9=Royal Robbins - How High The Moon
TTITLE10=Trend-Tones - This Is Love
TTITLE11=Roy And Charlie - We Fell In Love
TTITLE12=Dukays - Festival Of Love
TTITLE13=Donnie Boyd - I Love The Ground You Walk On
TTITLE14=Falcons - This Heart Of Mine
TTITLE15=Chariots - A Sunday Morning Love
TTITLE16=Esco's - That's Life
TTITLE17=New Concepts - How Deep Is The Ocean
TTITLE18=Four Voices - Lovely One
TTITLE19=Titans - What Have I Done
TTITLE20=Sevilles - Loving You
TTITLE21=Kingpins - How Long Will It Last
TTITLE22=Trend-Tones - Never Again
TTITLE23=Little Victor And Vistas - No More
TTITLE24=Quails - My Love
EXTD=
EXTT0=
EXTT1=
EXTT2=
EXTT3=
EXTT4=
EXTT5=
EXTT6=
EXTT7=
EXTT8=
EXTT9=
EXTT10=
EXTT11=
EXTT12=
EXTT13=
EXTT14=
EXTT15=
EXTT16=
EXTT17=
EXTT18=
EXTT19=
EXTT20=
EXTT21=
EXTT22=
EXTT23=
EXTT24=
PLAYORDER=
